<svg width="119" height="31" viewBox="0 0 119 31" fill="none" xmlns="http://www.w3.org/2000/svg">
<rect width="30.4718" height="30.4718" rx="15.2359" fill="white"/>
<path d="M11.3437 24.535H7.64886L3.74902 18.4007L5.65163 15.1875H13.3409L15.2383 18.4007L11.3437 24.535Z" fill="black"/>
<path d="M11.4436 5.9375L7.64886 12.0717H15.2383L23.0901 24.535L26.7223 18.4007L19.1329 5.9375H11.4436Z" fill="black"/>
<path d="M35.5503 25.0519L42.2999 5.09766H47.8174L54.567 25.0519H50.0405L48.7013 20.9807H41.3892L40.05 25.0519H35.5503ZM42.541 17.3648H47.5496L44.4962 7.93678H45.6211L42.541 17.3648Z" fill="white"/>
<path d="M59.3922 25.0519L54.3567 10.4277H58.5083L62.0438 20.9807L60.5975 20.9539L64.5347 10.4277H68.0167L71.9272 20.9539L70.4808 20.9807L74.0163 10.4277H78.1946L73.1324 25.0519H69.6505L65.5793 13.7489H66.9721L62.8741 25.0519H59.3922Z" fill="white"/>
<path d="M85.215 25.3733C84.0365 25.3733 83.0277 25.1233 82.1884 24.6233C81.367 24.1055 80.7421 23.3912 80.3135 22.4806C79.885 21.5699 79.6707 20.5075 79.6707 19.2933V10.4277H83.6883V18.9719C83.6883 19.5254 83.7955 20.0164 84.0097 20.445C84.2419 20.8557 84.5633 21.1771 84.974 21.4092C85.3847 21.6413 85.8489 21.7574 86.3667 21.7574C86.9024 21.7574 87.3667 21.6413 87.7595 21.4092C88.1702 21.1771 88.4827 20.8557 88.697 20.445C88.9291 20.0164 89.0452 19.5254 89.0452 18.9719V10.4277H93.0628V25.0519H89.313V22.1592L89.5273 22.802C89.188 23.6769 88.6345 24.3287 87.8667 24.7572C87.1167 25.1679 86.2328 25.3733 85.215 25.3733Z" fill="white"/>
<path d="M95.9992 25.0519V10.4277H99.749V13.9364L99.4811 13.4275C99.8026 12.1955 100.329 11.3652 101.061 10.9366C101.811 10.4902 102.695 10.267 103.713 10.267H104.57V13.7489H103.311C102.329 13.7489 101.535 14.0525 100.927 14.6596C100.32 15.2489 100.017 16.0881 100.017 17.1773V25.0519H95.9992Z" fill="white"/>
<path d="M110.858 25.3733C109.804 25.3733 108.893 25.2036 108.126 24.8644C107.358 24.5251 106.768 24.043 106.358 23.418C105.947 22.7752 105.742 22.0163 105.742 21.1414C105.742 20.32 105.929 19.5968 106.304 18.9719C106.679 18.329 107.251 17.7933 108.018 17.3648C108.804 16.9363 109.777 16.6327 110.938 16.4541L115.411 15.731V18.6772L111.661 19.3468C111.09 19.454 110.652 19.6415 110.349 19.9093C110.045 20.1593 109.893 20.5253 109.893 21.0074C109.893 21.4539 110.063 21.802 110.402 22.052C110.741 22.302 111.161 22.427 111.661 22.427C112.322 22.427 112.902 22.2842 113.402 21.9985C113.902 21.7128 114.286 21.3289 114.554 20.8467C114.839 20.3468 114.982 19.8022 114.982 19.2129V15.4096C114.982 14.856 114.759 14.3918 114.313 14.0168C113.884 13.6418 113.295 13.4543 112.545 13.4543C111.831 13.4543 111.197 13.6507 110.643 14.0436C110.108 14.4364 109.715 14.9542 109.465 15.597L106.251 14.0704C106.536 13.249 106.992 12.5437 107.617 11.9544C108.242 11.3652 108.992 10.9098 109.867 10.5884C110.741 10.267 111.697 10.1063 112.732 10.1063C113.964 10.1063 115.054 10.3295 116 10.7759C116.946 11.2223 117.679 11.8473 118.196 12.6508C118.732 13.4365 119 14.356 119 15.4096V25.0519H115.25V22.6949L116.161 22.5341C115.732 23.177 115.259 23.7126 114.741 24.1412C114.223 24.5519 113.643 24.8554 113 25.0519C112.357 25.2661 111.643 25.3733 110.858 25.3733Z" fill="white"/>
</svg>
